<?xml version="1.0"?>
<svg id="Layer_2" xmlns="http://www.w3.org/2000/svg" viewBox="0 0 69.77 65.05">
  <g id="Layer_1-2" data-name="Layer_1">
    <g>
      <path d="M25.46,38.47c1.49-1.51,2.51-1.67,4.09-.1,1.65,1.63,1.24,2.63-.22,4.06-7.59,7.5-15.12,15.06-22.66,22.61h8.39c3.25-3.74,7.04-7.03,10.51-10.6,1.42-1.47,2.51-1.44,3.93.02,3.48,3.58,7.23,6.91,10.6,10.58h8.32c-4.9-4.91-9.8-9.83-14.74-14.69-1.41-1.39-1.59-2.45-.1-3.94,1.59-1.58,2.7-1.28,4.15.18,6.1,6.18,12.26,12.31,18.41,18.45h8.31c-11.86-11.88-23.72-23.75-35.57-35.63-1-1-1.79-.92-2.72.05-1.55,1.61-3.22,3.12-4.72,4.78-1.4,1.56-2.56,1.45-3.91-.05-1.33-1.48-2.9-2.75-4.19-4.26-1.47-1.72-2.57-1.49-4.01.08-2.18,2.39-4.38,4.8-6.88,6.84-.93.76-1.53,1.58-1.89,2.42v7.62c3.15-2.69,5.99-5.55,8.75-8.5,1.31-1.4,2.37-1.78,3.91-.21,1.44,1.46,1.79,2.54.14,4.11-3.31,3.14-6.23,6.74-9.77,9.57-1.55,1.24-2.5,2.59-3.03,4.07v7.3c.76-.71,1.32-1.2,1.83-1.71,7.69-7.67,15.41-15.33,23.05-23.06Z"></path>
      <path d="M34.11,65.05c1.13-1.17,2.28-2.31,3.45-3.45-1.9-.86-3.29-2.32-4.19-4.05-2.5,2.49-5,4.99-7.5,7.49h8.24Z"></path>
      <path d="M67.24,0C45.75.05,24.26.05,2.77,0,.75,0-.02.65,0,2.72c.01,1.36,0,2.71.01,4.07.36,1.02.56,2.17.56,3.45v19.57c3.51-2.63,5.77-5.35,5.17-9.91-.45-3.42-.1-6.95-.08-10.43.02-3.34.22-3.56,3.51-3.56,17.01,0,34.01-.01,51.02,0,3.52,0,3.67.14,3.67,3.63,0,14.42,0,28.84,0,43.25,0,3.08,2.48,6.39,5.67,7.51.07-.41.18-.81.19-1.2,0-18.89,0-37.79.03-56.68,0-1.88-.75-2.4-2.53-2.4Z"></path>
    </g>
  </g>
</svg>