<?xml version="1.0"?>
<svg id="Layer_2" xmlns="http://www.w3.org/2000/svg" viewBox="0 0 299.82 65.05">
  <g id="Layer_1-2" data-name="Layer_1">
    <g>
      <g>
        <path d="M25.46,38.47c1.49-1.51,2.51-1.67,4.09-.1,1.65,1.63,1.24,2.63-.22,4.06-7.59,7.5-15.12,15.06-22.66,22.61h8.39c3.25-3.74,7.04-7.03,10.51-10.6,1.42-1.47,2.51-1.44,3.93.02,3.48,3.58,7.23,6.91,10.6,10.58h8.32c-4.9-4.91-9.8-9.83-14.74-14.69-1.41-1.39-1.59-2.45-.1-3.94,1.59-1.58,2.7-1.28,4.15.18,6.1,6.18,12.26,12.31,18.41,18.45h8.31c-11.86-11.88-23.72-23.75-35.57-35.63-1-1-1.79-.92-2.72.05-1.55,1.61-3.22,3.12-4.72,4.78-1.4,1.56-2.56,1.45-3.91-.05-1.33-1.48-2.9-2.75-4.19-4.26-1.47-1.72-2.57-1.49-4.01.08-2.18,2.39-4.38,4.8-6.88,6.84-.93.76-1.53,1.58-1.89,2.42v7.62c3.15-2.69,5.99-5.55,8.75-8.5,1.31-1.4,2.37-1.78,3.91-.21,1.44,1.46,1.79,2.54.14,4.11-3.31,3.14-6.23,6.74-9.77,9.57-1.55,1.24-2.5,2.59-3.03,4.07v7.3c.76-.71,1.32-1.2,1.83-1.71,7.69-7.67,15.41-15.33,23.05-23.06Z"></path>
        <path d="M34.11,65.05c1.13-1.17,2.28-2.31,3.45-3.45-1.9-.86-3.29-2.32-4.19-4.05-2.5,2.49-5,4.99-7.5,7.49h8.24Z"></path>
        <path d="M67.24,0C45.75.05,24.26.05,2.77,0,.75,0-.02.65,0,2.72c.01,1.36,0,2.71.01,4.07.36,1.02.56,2.17.56,3.45v19.57c3.51-2.63,5.77-5.35,5.17-9.91-.45-3.42-.1-6.95-.08-10.43.02-3.34.22-3.56,3.51-3.56,17.01,0,34.01-.01,51.02,0,3.52,0,3.67.14,3.67,3.63,0,14.42,0,28.84,0,43.25,0,3.08,2.48,6.39,5.67,7.51.07-.41.18-.81.19-1.2,0-18.89,0-37.79.03-56.68,0-1.88-.75-2.4-2.53-2.4Z"></path>
      </g>
      <g>
        <g>
          <path d="M119.02,22.7c0,1.16-.14,2.19-.43,3.11-.29.91-.67,1.72-1.16,2.41-.49.7-1.05,1.29-1.69,1.79-.64.5-1.31.9-2,1.22-.7.32-1.4.55-2.11.69-.71.14-1.38.21-2,.21l10.61,9.16h-7.85l-10.59-9.16h-3.65v-5.08h11.48c.64-.05,1.22-.19,1.75-.4s.98-.5,1.37-.87c.38-.36.68-.8.89-1.32.21-.51.31-1.1.31-1.77v-3.2c0-.29-.04-.5-.11-.65-.07-.15-.16-.26-.27-.33-.11-.07-.23-.11-.35-.13-.12-.01-.24-.02-.34-.02h-16.76v22.93h-5.08V15.84c0-.35.06-.68.2-1,.13-.31.31-.59.54-.82.23-.23.5-.42.81-.55.31-.13.65-.2,1.02-.2h19.28c1.13,0,2.09.21,2.87.62s1.42.92,1.9,1.54c.49.62.84,1.29,1.05,2,.21.72.32,1.39.32,2.01v3.24Z"></path>
          <path d="M156.72,41.29h-5.12v-16.68l-9,15.84c-.22.4-.53.71-.93.92-.4.21-.82.31-1.28.31s-.86-.1-1.24-.31c-.38-.21-.69-.51-.91-.92l-9.04-15.84v16.68h-5.08V15.45c0-.59.17-1.11.52-1.56.34-.46.8-.76,1.36-.92.27-.06.55-.09.82-.07s.54.08.79.18.48.23.69.41c.21.18.38.39.53.63l11.56,20.1,11.56-20.1c.3-.49.71-.85,1.24-1.05.53-.21,1.08-.24,1.65-.1.55.16,1,.46,1.35.92.35.46.53.98.53,1.56v25.84Z"></path>
          <path d="M187.7,41.29h-18.32c-.47,0-.97-.06-1.51-.17-.54-.11-1.07-.28-1.6-.52s-1.03-.54-1.51-.91c-.48-.37-.91-.82-1.28-1.35s-.67-1.14-.89-1.84c-.22-.7-.33-1.48-.33-2.35v-13.75c0-.47.06-.97.17-1.51.11-.54.28-1.07.52-1.6s.54-1.03.92-1.51c.38-.48.83-.91,1.36-1.28s1.14-.67,1.83-.89c.69-.22,1.47-.33,2.34-.33h18.32v5.08h-18.32c-.66,0-1.17.18-1.52.53s-.53.87-.53,1.56v13.71c0,.65.18,1.16.54,1.51.36.36.86.54,1.51.54h18.32v5.08Z"></path>
          <path d="M230.39,18.36h-11.19v22.93h-5.08v-22.93h-11.21v-5.08h27.48v5.08Z"></path>
          <path d="M239.24,41.29h-5.08V13.28h5.08v28.01Z"></path>
          <path d="M270.9,41.29h-23.16c-.36,0-.7-.06-1.02-.2-.31-.13-.58-.31-.81-.54-.23-.23-.41-.5-.54-.81-.13-.31-.2-.65-.2-1.02V13.28h5.08v22.93h20.64v5.08Z"></path>
          <path d="M299.82,41.29h-18.32c-.7,0-1.47-.12-2.3-.37-.83-.25-1.6-.65-2.31-1.22-.71-.57-1.3-1.3-1.78-2.21-.48-.9-.71-2.01-.71-3.33V15.84c0-.35.06-.68.2-1,.13-.31.31-.59.54-.82.23-.23.5-.42.81-.55.31-.13.65-.2,1.02-.2h22.87v5.08h-20.35v15.8c0,.66.18,1.17.53,1.52s.87.53,1.54.53h18.28v5.08ZM297.54,29.84h-16.04v-5.12h16.04v5.12Z"></path>
        </g>
        <g>
          <path d="M98.74,51.44c-.16,0-.22-.04-.23-.25-.09-1.17-1.07-2.15-2.87-2.15s-3.31,1.26-3.31,3.43,1.42,3.43,3.31,3.43c1.79,0,2.75-.85,2.87-1.99.01-.22.06-.26.25-.26h.82c.09,0,.23-.03.23.12,0,1.74-1.54,3.25-4.17,3.25s-4.6-1.7-4.6-4.54,1.99-4.54,4.6-4.54c2.78,0,4.17,1.79,4.17,3.37,0,.07-.06.15-.22.15h-.85Z"></path>
          <path d="M115,52.47c0,2.84-2.12,4.54-4.74,4.54s-4.74-1.7-4.74-4.54,2.14-4.54,4.74-4.54,4.74,1.7,4.74,4.54ZM106.8,52.47c0,2.14,1.57,3.43,3.46,3.43s3.46-1.29,3.46-3.43-1.52-3.43-3.46-3.43-3.46,1.26-3.46,3.43Z"></path>
          <path d="M123.26,50.83c-.34-.35-.56-.7-.56-.7h-.04v6.56c0,.09-.09.18-.18.18h-.94c-.09,0-.18-.09-.18-.18v-8.43c0-.09.09-.18.18-.18h.7l5.75,5.89c.38.38.66.82.66.82h.06v-6.53c0-.09.09-.18.18-.18h.94c.09,0,.18.09.18.18v8.43c0,.09-.09.18-.18.18h-.69l-5.89-6.03Z"></path>
          <path d="M137.47,53.9c.16,0,.21.07.21.21,0,1.08.76,1.79,2.75,1.79,1.82,0,2.46-.76,2.46-1.68,0-.53-.31-1.08-1.49-1.17l-2.44-.18c-1.77-.15-2.56-.94-2.56-2.17,0-1.33,1.16-2.77,3.72-2.77,2.72,0,3.7,1.24,3.7,2.75,0,.07-.06.15-.22.15h-.86c-.15,0-.21-.04-.22-.25-.07-.76-.69-1.54-2.4-1.54-1.51,0-2.43.72-2.43,1.65,0,.53.35.98,1.39,1.05l2.4.18c2.01.16,2.71,1.14,2.71,2.28s-1,2.8-3.75,2.8-4.04-1.26-4.04-2.8v-.15c0-.1.04-.16.18-.16h.91Z"></path>
          <path d="M149.15,48.98v-.7c0-.09.12-.21.2-.21h8.23c.09,0,.2.12.2.21v.7c0,.09-.12.21-.2.21h-3.47v7.5c0,.09-.09.18-.18.18h-.94c-.09,0-.18-.09-.18-.18v-7.5h-3.47c-.09,0-.2-.12-.2-.21Z"></path>
          <path d="M163.72,48.25c0-.09.09-.18.18-.18h3.75c2.06,0,3.57,1.03,3.57,2.88,0,1.42-.91,2.31-2.25,2.65v.03s.31.28.56.63l1.67,2.31c.09.12.1.16.1.19,0,.06-.03.09-.12.09h-1.2c-.07,0-.16-.04-.21-.1l-2.17-3h-2.59v2.93c0,.09-.09.18-.18.18h-.94c-.09,0-.18-.09-.18-.18v-8.43ZM165.01,49.19v3.53h2.61c1.35,0,2.31-.61,2.31-1.76s-.95-1.77-2.31-1.77h-2.61Z"></path>
          <path d="M184.83,48.25c0-.09.09-.18.18-.18h.94c.09,0,.18.09.18.18v4.51c0,2.84-1.71,4.25-4.33,4.25s-4.33-1.41-4.33-4.25v-4.51c0-.09.09-.18.18-.18h.94c.09,0,.18.09.18.18v4.51c0,2.14,1.16,3.13,3.05,3.13s3.05-1,3.05-3.13v-4.51Z"></path>
          <path d="M200.05,51.44c-.16,0-.22-.04-.23-.25-.09-1.17-1.07-2.15-2.87-2.15s-3.31,1.26-3.31,3.43,1.42,3.43,3.31,3.43c1.79,0,2.75-.85,2.87-1.99.01-.22.06-.26.25-.26h.82c.09,0,.23-.03.23.12,0,1.74-1.54,3.25-4.17,3.25s-4.6-1.7-4.6-4.54,1.99-4.54,4.6-4.54c2.78,0,4.17,1.79,4.17,3.37,0,.07-.06.15-.22.15h-.85Z"></path>
          <path d="M206.23,48.98v-.7c0-.09.12-.21.2-.21h8.23c.09,0,.2.12.2.21v.7c0,.09-.12.21-.2.21h-3.47v7.5c0,.09-.09.18-.18.18h-.94c-.09,0-.18-.09-.18-.18v-7.5h-3.47c-.09,0-.2-.12-.2-.21Z"></path>
          <path d="M222.1,56.69c0,.09-.09.18-.18.18h-.94c-.09,0-.18-.09-.18-.18v-8.43c0-.09.09-.18.18-.18h.94c.09,0,.18.09.18.18v8.43Z"></path>
          <path d="M237.97,52.47c0,2.84-2.12,4.54-4.74,4.54s-4.74-1.7-4.74-4.54,2.14-4.54,4.74-4.54,4.74,1.7,4.74,4.54ZM229.77,52.47c0,2.14,1.57,3.43,3.46,3.43s3.46-1.29,3.46-3.43-1.52-3.43-3.46-3.43-3.46,1.26-3.46,3.43Z"></path>
          <path d="M246.23,50.83c-.34-.35-.56-.7-.56-.7h-.04v6.56c0,.09-.09.18-.18.18h-.94c-.09,0-.18-.09-.18-.18v-8.43c0-.09.09-.18.18-.18h.7l5.75,5.89c.38.38.66.82.66.82h.06v-6.53c0-.09.09-.18.18-.18h.94c.09,0,.18.09.18.18v8.43c0,.09-.09.18-.18.18h-.69l-5.89-6.03Z"></path>
          <path d="M268.78,55.75h4.83c.09,0,.21.12.21.2v.7c0,.09-.12.21-.21.21h-5.94c-.09,0-.18-.09-.18-.18v-8.43c0-.09.09-.18.18-.18h.94c.09,0,.18.09.18.18v7.5Z"></path>
          <path d="M281.04,55.75h4.83c.09,0,.21.12.21.2v.7c0,.09-.12.21-.21.21h-5.94c-.09,0-.18-.09-.18-.18v-8.43c0-.09.09-.18.18-.18h.94c.09,0,.18.09.18.18v7.5Z"></path>
          <path d="M298.76,51.44c-.16,0-.22-.04-.23-.25-.09-1.17-1.07-2.15-2.87-2.15s-3.31,1.26-3.31,3.43,1.42,3.43,3.31,3.43c1.79,0,2.75-.85,2.87-1.99.01-.22.06-.26.25-.26h.82c.09,0,.23-.03.23.12,0,1.74-1.54,3.25-4.17,3.25s-4.6-1.7-4.6-4.54,1.99-4.54,4.6-4.54c2.78,0,4.17,1.79,4.17,3.37,0,.07-.06.15-.22.15h-.85Z"></path>
        </g>
      </g>
    </g>
  </g>
</svg>